<?xml version="1.0" encoding="UTF-8"?>
<svg version="1.1" xmlns="http://www.w3.org/2000/svg" width="500" height="500">
<path d="M0 0 C165 0 330 0 500 0 C500 165 500 330 500 500 C335 500 170 500 0 500 C0 335 0 170 0 0 Z " fill="#FEFDF8" transform="translate(0,0)"/>
<path d="M0 0 C2.69668415 1.6817503 4.84620215 3.67306727 7 6 C6.67 7.65 6.34 9.3 6 11 C3.0280615 9.87548273 0.66559313 8.77706209 -2 7 C-5.33959688 7.08788413 -6.81530879 7.85319417 -9.4375 9.9375 C-15.64247973 17.35320748 -21 26.10780564 -21 36 C-20.65219482 35.38479492 -20.30438965 34.76958984 -19.94604492 34.13574219 C-18.36271517 31.33886918 -16.77515524 28.54441972 -15.1875 25.75 C-14.36668945 24.29787109 -14.36668945 24.29787109 -13.52929688 22.81640625 C-12.99755859 21.88183594 -12.46582031 20.94726562 -11.91796875 19.984375 C-11.43094482 19.12553711 -10.9439209 18.26669922 -10.44213867 17.38183594 C-9.08206983 15.13554652 -7.61438682 13.06876029 -6 11 C-1.125 11.875 -1.125 11.875 0 13 C0.13346792 15.18590788 0.23127358 17.37402811 0.3125 19.5625 C0.6946895 25.70259361 1.42464056 31.42464056 6 36 C12.32244926 36.79030616 15.78881035 35.6039548 20.89453125 31.81640625 C27.45012508 26.16083829 29.69385764 20.383952 32.00390625 12.140625 C33.30234595 8.04672101 34.9823046 4.12296384 38 1 C40.09375 0.234375 40.09375 0.234375 42 0 C43 1 43 1 43.3125 3.75 C43.2728675 8.57525711 41.55163736 12.91521515 39.97265625 17.42578125 C38.74740789 21.92819993 38.34767704 26.35830837 38 31 C38.46055786 30.26680542 38.46055786 30.26680542 38.93041992 29.51879883 C40.34270533 27.27903352 41.76499079 25.04578467 43.1875 22.8125 C43.67025391 22.04357422 44.15300781 21.27464844 44.65039062 20.48242188 C47.42971736 16.13622638 50.19132845 12.48395355 54 9 C54.33 8.67 54.66 8.34 55 8 C57.4375 7.8125 57.4375 7.8125 60 8 C62.48841277 10.48841277 62.31877526 11.46428253 62.52734375 14.91015625 C62.59759766 15.90080078 62.66785156 16.89144531 62.74023438 17.91210938 C62.87002413 19.98489034 62.99768717 22.05780576 63.12304688 24.13085938 C63.57617372 34.25013143 63.57617372 34.25013143 68 43 C70.3295947 43.50241322 70.3295947 43.50241322 73 43 C74.98463004 41.38095971 76.38987872 39.95318689 78 38 C78.53625 37.35675781 79.0725 36.71351563 79.625 36.05078125 C84.93857573 29.44439357 89.41114383 22.3398013 93.75 15.06640625 C97.5506553 8.81398893 101.26086152 3.36956924 108 0 C112.05318516 -0.65214181 115.58406125 -0.88303089 119.1484375 1.33984375 C120.8605498 2.82483912 122.46103072 4.33731936 124 6 C123.67 7.65 123.34 9.3 123 11 C120.0280615 9.87548273 117.66559313 8.77706209 115 7 C111.66040312 7.08788413 110.18469121 7.85319417 107.5625 9.9375 C101.35752027 17.35320748 96 26.10780564 96 36 C96.34780518 35.38479492 96.69561035 34.76958984 97.05395508 34.13574219 C98.63728483 31.33886918 100.22484476 28.54441972 101.8125 25.75 C102.35970703 24.78191406 102.90691406 23.81382812 103.47070312 22.81640625 C104.00244141 21.88183594 104.53417969 20.94726562 105.08203125 19.984375 C105.56905518 19.12553711 106.0560791 18.26669922 106.55786133 17.38183594 C107.91793017 15.13554652 109.38561318 13.06876029 111 11 C115.875 11.875 115.875 11.875 117 13 C117.13346792 15.18590788 117.23127358 17.37402811 117.3125 19.5625 C117.6946895 25.70259361 118.42464056 31.42464056 123 36 C129.1951954 36.77439942 132.61354919 35.70493297 137.63671875 32.03515625 C143.50410436 26.98241591 148.56908349 21.10576567 153.0625 14.8125 C157.4064091 8.82728433 162.86953044 3.32738526 170 1 C174.04537127 0.56656736 176.29752475 0.64128923 179.9375 2.5 C182.91721513 6.11177591 182.38243285 8.41080579 182 13 C178.63279613 11.60667426 177.0140476 10.0210714 175 7 C169.58784127 7.13530397 166.802884 9.303399 163.015625 12.859375 C155.38515298 20.96305459 149.8892591 30.96592292 148 42 C157.06558348 36.18434268 163.41068035 27.60040398 169.19921875 18.62890625 C171 16 171 16 173.0625 14.9375 C175 15 175 15 176.6875 16.25 C178.8148436 19.08645813 179.12342829 21.584038 179.09765625 25.01171875 C179.09443359 25.76904297 179.09121094 26.52636719 179.08789062 27.30664062 C179.07951172 28.09232422 179.07113281 28.87800781 179.0625 29.6875 C179.05798828 30.48478516 179.05347656 31.28207031 179.04882812 32.10351562 C179.0370585 34.06904257 179.01912348 36.03453085 179 38 C181.10634067 36.62697793 183.19932535 35.238036 185.28125 33.828125 C187.1370156 32.58028262 189.01332139 31.36258816 190.90625 30.171875 C196.90214146 26.20685 199.93147586 23.32233999 202.125 16.45703125 C204.2598603 10.46226729 208.77833312 5.32987393 214.06640625 1.84375 C217.58170935 0.30979956 221.27775681 0.13436205 225 1 C226.76953125 2.32421875 226.76953125 2.32421875 228 4 C227.89676033 9.47170274 226.47797276 12.82643269 223 17 C218.05709725 21.5509124 213.6418469 24.72815698 207 26 C208.0951393 31.55941363 208.0951393 31.55941363 210.6875 36.5 C214.06177656 38.68871993 216.02127205 38.52180039 220 38 C226.65105542 35.83567118 232.35455815 32.04787896 238 28 C238.72445313 27.59652344 239.44890625 27.19304687 240.1953125 26.77734375 C242.95822463 24.05629392 242.73863534 21.41458882 243.0625 17.625 C243.50635598 12.56803416 244.02807302 9.17197338 247 5 C250.875 5.875 250.875 5.875 252 7 C252.08631874 8.34267413 252.10706473 9.68974322 252.09765625 11.03515625 C252.09443359 11.84404297 252.09121094 12.65292969 252.08789062 13.48632812 C252.07951172 14.33646484 252.07113281 15.18660156 252.0625 16.0625 C252.05798828 16.91650391 252.05347656 17.77050781 252.04882812 18.65039062 C252.03700373 20.76695663 252.01906769 22.88348685 252 25 C252.77988281 24.18402344 253.55976563 23.36804688 254.36328125 22.52734375 C258.62070538 18.98511686 262.87122874 19.36617137 268.1875 19.5625 C269.08919922 19.56830078 269.99089844 19.57410156 270.91992188 19.58007812 C277.55539664 19.70359776 277.55539664 19.70359776 281 22 C280.67 23.32 280.34 24.64 280 26 C279.38479492 26.00410889 278.76958984 26.00821777 278.13574219 26.01245117 C275.33952769 26.04541296 272.54548496 26.11605576 269.75 26.1875 C268.29787109 26.19620117 268.29787109 26.19620117 266.81640625 26.20507812 C261.11753128 26.28498096 261.11753128 26.28498096 256.46484375 29.2578125 C252.83480507 36.0532449 250.59726352 42.11172401 250.2734375 49.87109375 C250 52 250 52 248 55 C246.35 54.67 244.7 54.34 243 54 C243 46.74 243 39.48 243 32 C241.040625 33.4025 239.08125 34.805 237.0625 36.25 C229.19032613 41.73470326 221.99121133 46.52984521 212 45 C206.14876489 42.97457246 202.70217097 39.27026682 199.859375 33.80859375 C199.57578125 33.21175781 199.2921875 32.61492187 199 32 C198.05640625 32.76183594 198.05640625 32.76183594 197.09375 33.5390625 C196.2378125 34.22742188 195.381875 34.91578125 194.5 35.625 C193.59378906 36.35847656 192.68757812 37.09195313 191.75390625 37.84765625 C188.77635154 40.17479476 185.69288518 42.27188519 182.49609375 44.28515625 C179.00373343 48.28814889 179.8910183 54.91446166 179.76123047 60.01391602 C179.08927026 83.81065257 174.69751828 109.63205267 158.4375 127.875 C157.633125 128.57625 156.82875 129.2775 156 130 C155.13375 130.763125 154.2675 131.52625 153.375 132.3125 C148.58186748 134.70906626 144.26106162 134.9463495 139 134 C135.77655328 131.5659688 134.2253029 129.33795435 132 126 C129.42819876 101.60849558 142.91930852 81.30999065 157.42578125 62.92578125 C160.7001543 58.89197378 164.04663042 54.94342962 167.5 51.0625 C171.39980248 46.28524197 171.23858589 41.76099635 171.5625 35.75 C171.62727539 34.63238281 171.62727539 34.63238281 171.69335938 33.4921875 C171.79896725 31.661651 171.89994201 29.83084824 172 28 C168.7220852 31.22040752 165.63167371 34.52658633 162.625 38 C154.046875 47.53125 154.046875 47.53125 147.75 48.5 C145 48 145 48 143.125 46.9375 C141.41803605 43.99772876 141.81200234 41.32129197 142 38 C141.38253906 38.433125 140.76507813 38.86625 140.12890625 39.3125 C134.36497898 43.10247957 129.94964722 45.36782321 123 44 C117.96657786 41.94087276 114.2434209 37.9027965 112.11181641 32.92651367 C111.73549072 31.87040894 111.73549072 31.87040894 111.3515625 30.79296875 C111.09455566 30.08035889 110.83754883 29.36774902 110.57275391 28.63354492 C110.38374512 28.0944751 110.19473633 27.55540527 110 27 C109.56131592 27.75676025 109.56131592 27.75676025 109.11376953 28.52880859 C107.78738762 30.81275301 106.45625654 33.09389374 105.125 35.375 C104.66480469 36.1690625 104.20460938 36.963125 103.73046875 37.78125 C103.28574219 38.54179687 102.84101563 39.30234375 102.3828125 40.0859375 C101.77010498 41.1385376 101.77010498 41.1385376 101.14501953 42.21240234 C100 44 100 44 98 46 C95.06964581 46.27908135 92.84374924 46.48367046 90 46 C87.59927554 43.75416099 87.04246482 42.12739447 86 39 C85.55269531 39.54269531 85.10539062 40.08539063 84.64453125 40.64453125 C77.17174752 49.48759089 77.17174752 49.48759089 72.08984375 50.30859375 C68.54905118 50.52699778 66.42781812 50.2236322 63.25 48.5625 C57.1051299 41.56417572 55.96280672 33.18660698 55.4375 24.1875 C55.39431641 23.49462891 55.35113281 22.80175781 55.30664062 22.08789062 C55.20138547 20.39211314 55.10027137 18.69607948 55 17 C51.00384194 22.38084504 47.50616895 27.7839048 44.4375 33.75 C41.79561761 38.75007272 39.5744746 42.6188666 35 46 C32.125 45.875 32.125 45.875 30 45 C29.01 42.03 28.02 39.06 27 36 C25.7625 36.94875 24.525 37.8975 23.25 38.875 C17.43851684 43.33047042 13.33990128 44.83018632 6 44 C0.96657786 41.94087276 -2.7565791 37.9027965 -4.88818359 32.92651367 C-5.13906738 32.22244385 -5.38995117 31.51837402 -5.6484375 30.79296875 C-5.90544434 30.08035889 -6.16245117 29.36774902 -6.42724609 28.63354492 C-6.61625488 28.0944751 -6.80526367 27.55540527 -7 27 C-7.29245605 27.50450684 -7.58491211 28.00901367 -7.88623047 28.52880859 C-9.21261238 30.81275301 -10.54374346 33.09389374 -11.875 35.375 C-12.33519531 36.1690625 -12.79539063 36.963125 -13.26953125 37.78125 C-13.71425781 38.54179687 -14.15898437 39.30234375 -14.6171875 40.0859375 C-15.02565918 40.7876709 -15.43413086 41.4894043 -15.85498047 42.21240234 C-17 44 -17 44 -19 46 C-24.68348624 46.5412844 -24.68348624 46.5412844 -27 46 C-29.81836103 43.19442065 -30.45284488 40.9822695 -30.5 37.0625 C-30.14652115 25.52064699 -24.09513582 13.24289668 -16.06640625 5.01953125 C-10.83242127 0.43843421 -6.90408903 -1.24813336 0 0 Z " fill="#1A2D28" transform="translate(203,227)"/>
<path d="M0 0 C1.32 0 2.64 0 4 0 C4.5838104 14.80608046 3.05646764 28.51452657 0 43 C-0.14953125 43.72638672 -0.2990625 44.45277344 -0.453125 45.20117188 C-9.40539761 87.68302105 -31.83275024 125.27948987 -62 156 C-62.60231445 156.61625244 -63.20462891 157.23250488 -63.82519531 157.86743164 C-68.89940727 163.00963859 -74.34215558 167.51046371 -80 172 C-81.01320313 172.81855469 -82.02640625 173.63710938 -83.0703125 174.48046875 C-90.38461932 180.31763022 -97.99814448 185.32866414 -106.13671875 189.94287109 C-107.90126138 190.94398084 -109.6541491 191.96555263 -111.40625 192.98828125 C-133.06951021 205.16166734 -157.06309248 213.20036685 -181.46679688 217.54150391 C-183.18623668 217.85271323 -184.9012469 218.18924837 -186.61132812 218.54833984 C-196.05523599 220.3941349 -205.4184565 220.31054113 -215 220.25 C-215.86783112 220.24689819 -216.73566223 220.24379639 -217.62979126 220.24060059 C-230.16543704 220.18795108 -242.60151656 220.03100018 -255 218 C-255.79744629 217.87109375 -256.59489258 217.7421875 -257.41650391 217.609375 C-315.66041469 207.81705375 -368.28681312 173.95146626 -402.58203125 126.01953125 C-407.91746625 118.34333082 -412.59222575 110.23965306 -417 102 C-417.37729248 101.29834717 -417.75458496 100.59669434 -418.14331055 99.8737793 C-419 98 -419 98 -418.81640625 96.140625 C-417.70951207 93.23833787 -416.35046934 90.51581233 -414.9375 87.75 C-414.38964844 86.67234375 -413.84179688 85.5946875 -413.27734375 84.484375 C-412.85582031 83.66453125 -412.43429687 82.8446875 -412 82 C-408.7173049 83.64134755 -407.97956511 87.26362442 -406.5625 90.5 C-398.20103763 108.87572664 -385.87643965 125.40979492 -372 140 C-371.47841309 140.55413574 -370.95682617 141.10827148 -370.41943359 141.67919922 C-361.05470484 151.5702454 -351.12145873 160.13804482 -340 168 C-339.41428223 168.41443359 -338.82856445 168.82886719 -338.22509766 169.25585938 C-315.51109283 185.07418645 -289.16771377 196.67510071 -262 202 C-260.09069702 202.387323 -260.09069702 202.387323 -258.14282227 202.7824707 C-246.2557775 205.0621837 -234.64392727 205.51775656 -222.5625 205.4375 C-221.12357391 205.43343643 -221.12357391 205.43343643 -219.65557861 205.42929077 C-203.81537494 205.36167353 -188.52388258 204.38666943 -173 201 C-172.19175781 200.82871582 -171.38351562 200.65743164 -170.55078125 200.48095703 C-136.37865549 192.93147 -104.96903788 175.0543193 -79 152 C-78.01 151.13246094 -77.02 150.26492188 -76 149.37109375 C-70.57241699 144.54083985 -65.59501525 139.62235606 -61 134 C-60.58169922 133.50467773 -60.16339844 133.00935547 -59.73242188 132.49902344 C-36.44044173 104.91471038 -18.51468744 70.18191737 -13.40234375 34.17651367 C-12.55211369 28.76505628 -10.96408169 26.90807425 -7 23 C-6.26774294 20.2704192 -5.77145501 17.8950144 -5.4375 15.125 C-4.67646207 9.16071758 -3.25714578 5.10219565 0 0 Z " fill="#162A24" transform="translate(465,261)"/>
<path d="M0 0 C6.48769686 7.50384216 5.49469727 17.72664263 5 27 C3.79887573 41.8273014 1.33785561 56.51792539 -1.08813477 71.18310547 C-2.96230093 82.55759798 -4.55378705 93.95959679 -6.09765625 105.3828125 C-6.87328291 111.11670441 -7.69704738 116.84152837 -8.5625 122.5625 C-8.68254395 123.36083252 -8.80258789 124.15916504 -8.92626953 124.98168945 C-9.51297184 128.86230616 -10.11745055 132.7392369 -10.74609375 136.61328125 C-14.18844119 158.15247726 -15.87123766 179.9356852 -17.78027344 201.65429688 C-17.92542641 203.20388547 -18.08468125 204.75222518 -18.25878906 206.29882812 C-19.17527692 214.51678202 -19.33732873 222.74703816 -19.55224609 231.00830078 C-19.60384817 232.94314178 -19.66120587 234.87782661 -19.71875 236.8125 C-19.74904297 237.95332031 -19.77933594 239.09414063 -19.81054688 240.26953125 C-20 243 -20 243 -21 245 C-24.875 244.125 -24.875 244.125 -26 243 C-26.25688617 239.63349691 -26.17164537 236.24605352 -26.1640625 232.87109375 C-26.16201813 231.80338242 -26.15997375 230.73567108 -26.15786743 229.63560486 C-26.06465242 216.45135112 -25.32626045 203.30354623 -24.50498581 190.14762497 C-24.3729999 188.03041608 -24.24358214 185.91305964 -24.11428833 183.79568481 C-22.60000544 159.22234173 -20.08713957 134.86028684 -16.7355957 110.46557617 C-16.06590963 105.5578784 -15.45708218 100.6439205 -14.85717773 95.7272644 C-13.61351341 85.5395276 -12.20148432 75.42341329 -10.4375 65.3125 C-7.69872187 49.34618664 -5.09146283 33.63648103 -4.4375 17.4375 C-4.37272461 15.92446289 -4.37272461 15.92446289 -4.30664062 14.38085938 C-4.20170382 11.92067425 -4.09954299 9.46040825 -4 7 C-12.67593837 10.94360835 -17.44470386 20.97448643 -21.75 29 C-22.26385254 29.95656494 -22.77770508 30.91312988 -23.30712891 31.89868164 C-36.94647799 57.71049062 -46.3139306 85.28441161 -55.6796875 112.859375 C-56.07784668 114.02799072 -56.47600586 115.19660645 -56.88623047 116.40063477 C-57.59483941 118.49182331 -58.29530964 120.58580058 -58.98486328 122.68334961 C-65.76150452 142.80313145 -65.76150452 142.80313145 -73 148 C-75.625 148.5625 -75.625 148.5625 -78 148 C-82.06034626 144.24042013 -82.89507248 138.60228022 -83.24291992 133.29052734 C-83.23881104 131.9855127 -83.23470215 130.68049805 -83.23046875 129.3359375 C-83.23001053 128.62200836 -83.22955231 127.90807922 -83.2290802 127.17251587 C-83.22607632 125.66821624 -83.21824638 124.1639192 -83.20581055 122.65966797 C-83.1877156 120.40190096 -83.18530033 118.14455034 -83.18554688 115.88671875 C-83.16621143 108.1742082 -82.88920868 100.56058879 -82.22045898 92.87207031 C-81.90825643 88.80479365 -81.88883527 84.76410701 -81.9375 80.6875 C-81.94201172 79.93533203 -81.94652344 79.18316406 -81.95117188 78.40820312 C-81.96265449 76.60543185 -81.98056967 74.80270314 -82 73 C-87.18068762 79.1801772 -90.47210733 85.8201145 -93.625 93.1875 C-93.98456787 94.0230542 -94.34413574 94.8586084 -94.71459961 95.71948242 C-100.61719763 109.8570161 -104.4560675 124.30893696 -108.04931641 139.16448975 C-122.86943298 200.29510017 -122.86943298 200.29510017 -130 206 C-132.9375 206.5 -132.9375 206.5 -136 206 C-145.66185277 197.44235897 -145.07362901 178.79493566 -145.88220215 167.03210449 C-148.33389561 124.73848674 -143.9173436 81.3448181 -135 40 C-134.83868591 39.2453949 -134.67737183 38.49078979 -134.51116943 37.71331787 C-128.61759578 10.45881558 -128.61759578 10.45881558 -122 3 C-120.68 3.33 -119.36 3.66 -118 4 C-118.49880227 9.92638908 -119.52354849 15.36437321 -121.1875 21.0625 C-132.66487051 62.88380362 -137.08807063 107.40315383 -137.25 150.625 C-137.2554483 151.5064267 -137.26089661 152.38785339 -137.26651001 153.29598999 C-137.31875145 164.61995041 -136.72933827 175.66781834 -135.26599121 186.89813232 C-134.79834013 190.59352016 -134.40168076 194.29695077 -134 198 C-130.78470533 195.03727628 -129.63762509 191.90066175 -128.3125 187.8125 C-128.06121338 187.05001953 -127.80992676 186.28753906 -127.55102539 185.50195312 C-123.90295351 174.0236853 -121.2391867 162.2478716 -118.37245178 150.55618286 C-116.42929203 142.64793025 -114.33486819 134.80132142 -112 127 C-111.72220703 126.06704102 -111.44441406 125.13408203 -111.15820312 124.17285156 C-96.0320125 73.88546307 -96.0320125 73.88546307 -83 65 C-79.875 64.875 -79.875 64.875 -77 66 C-72.8045128 71.69246855 -73.62841036 78.26072199 -73.75 85 C-73.76168213 86.22460938 -73.77336426 87.44921875 -73.78540039 88.7109375 C-73.87291179 95.58722558 -74.13177735 102.41131536 -74.71557617 109.26416016 C-74.98401784 112.79007809 -75.15959989 116.30245809 -75.2890625 119.8359375 C-75.33490479 121.07214844 -75.38074707 122.30835938 -75.42797852 123.58203125 C-75.62206788 129.05457644 -75.8158333 134.52711043 -76 140 C-72.63091753 137.01562552 -71.13053829 134.46450166 -69.625 130.2421875 C-68.99259399 128.49349365 -68.99259399 128.49349365 -68.34741211 126.70947266 C-67.89814525 125.43136061 -67.44901177 124.15320168 -67 122.875 C-66.52125314 121.54049748 -66.04149555 120.20635718 -65.56079102 118.87255859 C-62.98328632 111.69665064 -60.47263496 104.49737506 -57.96484375 97.296875 C-30.40800505 18.23200441 -30.40800505 18.23200441 -10 0.375 C-6.04128559 -1.43941077 -4.10764307 -1.44528182 0 0 Z " fill="#1B2E28" transform="translate(170,147)"/>
<path d="M0 0 C4.42454062 1.54188537 8.14471541 3.89092843 12 6.5 C12.65790527 6.94359863 13.31581055 7.38719727 13.99365234 7.84423828 C25.51344806 15.68944917 35.95171097 24.35067351 46 34 C46.51449707 34.48726562 47.02899414 34.97453125 47.55908203 35.4765625 C55.5449944 43.05950436 62.42171757 51.17851105 69 60 C69.42522949 60.55913086 69.85045898 61.11826172 70.28857422 61.69433594 C77.54470107 71.25200244 83.47860829 81.35557576 89 92 C89.39074707 92.74878418 89.78149414 93.49756836 90.18408203 94.26904297 C102.02451153 117.24931424 112.36009238 145.31187065 112.0625 171.5 C112.05347656 172.5415625 112.04445313 173.583125 112.03515625 174.65625 C112.02355469 175.4296875 112.01195312 176.203125 112 177 C110.02 177 108.04 177 106 177 C105.96261719 176.39671875 105.92523438 175.7934375 105.88671875 175.171875 C105.50765052 168.93072453 105.50765052 168.93072453 102 164 C101.18660156 163.83628906 100.37320313 163.67257813 99.53515625 163.50390625 C97 162 97 162 96.25439453 160.1652832 C95.63818518 157.57985955 95.15015603 154.99230483 94.6875 152.375 C86.51669439 112.30244126 67.09925207 77.4220414 39 48 C38.12730469 47.07445312 37.25460937 46.14890625 36.35546875 45.1953125 C23.95524815 32.37751492 9.39064765 21.93967406 -6 13 C-5.34215037 9.70319035 -4.10579427 7.15882078 -2.4375 4.25 C-1.98246094 3.45078125 -1.52742188 2.6515625 -1.05859375 1.828125 C-0.53458984 0.92320313 -0.53458984 0.92320313 0 0 Z " fill="#162924" transform="translate(356,63)"/>
<path d="M0 0 C2.52344606 1.34007414 3.26892424 2.88832077 4.57421875 5.40625 C5.0021875 6.20933594 5.43015625 7.01242188 5.87109375 7.83984375 C6.82421875 9.96875 6.82421875 9.96875 6.82421875 11.96875 C6.01082031 12.39542969 5.19742188 12.82210937 4.359375 13.26171875 C-10.69602583 21.47529513 -23.87434078 32.05925719 -36.17578125 43.96875 C-36.70123535 44.46842285 -37.22668945 44.9680957 -37.76806641 45.48291016 C-54.05036282 60.99238917 -66.97835901 78.94533481 -77.17578125 98.96875 C-78.06801453 95.98787972 -78.1612781 93.61947006 -77.92578125 90.53125 C-77.84830712 86.61880668 -78.0248589 86.15362988 -80.67578125 82.90625 C-81.91328125 81.9471875 -81.91328125 81.9471875 -83.17578125 80.96875 C-81.54210367 75.97967475 -78.64090656 72.0649989 -75.61328125 67.84375 C-75.07388916 67.08747314 -74.53449707 66.33119629 -73.97875977 65.55200195 C-61.14775198 47.7065336 -24.88425333 -0.357404 0 0 Z " fill="#172A24" transform="translate(136.17578125,63.03125)"/>
<path d="M0 0 C0.86449877 21.37233059 -1.38585163 49.74822535 -16.2265625 66.515625 C-19.57981314 69.51526012 -22.32066381 71.81746346 -26.875 72.3125 C-30 72 -30 72 -32.16015625 70.34375 C-35.10277699 66.59518855 -34.59842229 63.32931574 -34.453125 58.7109375 C-32.70700094 44.41078352 -25.46490364 31.55448688 -17.25 20 C-16.63745361 19.13149414 -16.02490723 18.26298828 -15.39379883 17.36816406 C-2.99006215 0 -2.99006215 0 0 0 Z " fill="#FBFAF5" transform="translate(374,284)"/>
<path d="M0 0 C1.98 0 3.96 0 6 0 C7.98 5.61 9.96 11.22 12 17 C15.08468942 12.40506275 15.08468942 12.40506275 18.1315918 7.78515625 C19.33479774 6.04721947 20.48270519 4.47504103 22 3 C24.83203125 2.5625 24.83203125 2.5625 27 3 C26.88494258 5.83404585 26.75822275 8.66679619 26.625 11.5 C26.57859375 12.68722656 26.57859375 12.68722656 26.53125 13.8984375 C26.27143777 19.18128612 25.43666294 23.90743869 24 29 C22.68 29 21.36 29 20 29 C20.33 23.39 20.66 17.78 21 12 C18.5309705 16.26898789 18.5309705 16.26898789 16.09472656 20.55664062 C15.140625 22.15625 15.140625 22.15625 13 25 C11.68 25 10.36 25 9 25 C7.35 19.72 5.7 14.44 4 9 C3.01 14.61 2.02 20.22 1 26 C-0.32 26 -1.64 26 -3 26 C-3.34617156 17.51879678 -2.69213866 8.07641598 0 0 Z " fill="#21342E" transform="translate(263,29)"/>
<path d="M0 0 C3.76135008 0.485759 6.80910865 1.68835984 10.1875 3.375 C11.04730469 3.79523437 11.90710938 4.21546875 12.79296875 4.6484375 C15 6 15 6 17 9 C17.50418234 13.63847757 16.77954397 16.25830619 14 20 C10.55389094 21.72305453 6.77537825 21.379435 3 21 C-0.5625 19.5 -0.5625 19.5 -3 18 C-3.66 20.31 -4.32 22.62 -5 25 C-6.32 24.67 -7.64 24.34 -9 24 C-8.38301463 18.62708572 -6.59292437 14.11721945 -4.5 9.1875 C-4.01853516 8.02444336 -4.01853516 8.02444336 -3.52734375 6.83789062 C-1.14773261 1.14773261 -1.14773261 1.14773261 0 0 Z " fill="#1F322C" transform="translate(329,44)"/>
<path d="M0 0 C2.71875 0.46875 2.71875 0.46875 5 3.25 C5.75797435 4.47842388 6.49672151 5.71885992 7.21875 6.96875 C7.60603271 7.6071582 7.99331543 8.24556641 8.39233398 8.90332031 C9.1615815 10.17289273 9.92404432 11.44660431 10.67919922 12.72460938 C11.9912003 14.92586248 13.38479577 17.07035888 14.78125 19.21875 C16.71875 22.46875 16.71875 22.46875 16.71875 24.46875 C15.06875 24.46875 13.41875 24.46875 11.71875 24.46875 C11.05875 23.14875 10.39875 21.82875 9.71875 20.46875 C5.09875 20.79875 0.47875 21.12875 -4.28125 21.46875 C-4.61125 23.44875 -4.94125 25.42875 -5.28125 27.46875 C-6.60125 27.46875 -7.92125 27.46875 -9.28125 27.46875 C-8.67340968 21.43869771 -7.44959954 15.85140654 -5.78125 10.03125 C-5.55566406 9.21720703 -5.33007812 8.40316406 -5.09765625 7.56445312 C-3.14754651 0.64675613 -3.14754651 0.64675613 0 0 Z " fill="#22342E" transform="translate(212.28125,30.53125)"/>
<path d="M0 0 C0.89203125 0.01804688 1.7840625 0.03609375 2.703125 0.0546875 C3.71632812 0.08949219 3.71632812 0.08949219 4.75 0.125 C4.42 1.445 4.09 2.765 3.75 4.125 C3.14671875 4.13917969 2.5434375 4.15335938 1.921875 4.16796875 C-3.40397897 4.47782776 -3.40397897 4.47782776 -7.8125 7.3125 C-9.52504881 10.66313897 -9.86875967 12.41244199 -9.25 16.125 C-7.90884601 19.13479883 -7.90884601 19.13479883 -5.25 21.125 C-1.15195306 21.77858775 -1.15195306 21.77858775 2.75 21.125 C5.75333267 18.79163334 5.75333267 18.79163334 7.75 16.125 C9.07 16.785 10.39 17.445 11.75 18.125 C9.66682406 22.18171104 8.03747299 24.42787527 3.75 26.125 C-1.42697399 26.7643251 -5.71415809 27.00262395 -10.3125 24.375 C-14.11999745 19.95339005 -14.74675155 16.34019629 -14.63671875 10.6015625 C-13.99655237 6.50191116 -12.2970353 4.89503209 -9.25 2.125 C-6.07703972 0.1486222 -3.70980505 -0.09762645 0 0 Z " fill="#1F322C" transform="translate(162.25,44.875)"/>
<path d="M0 0 C1.29409592 0.45142881 2.58521059 0.91141021 3.875 1.375 C4.59429687 1.63023438 5.31359375 1.88546875 6.0546875 2.1484375 C8 3 8 3 10 5 C9.43181818 10.56818182 9.43181818 10.56818182 8 12 C3.45049584 12.26247139 0.11560195 11.99544337 -4 10 C-3.52449439 8.51965236 -3.04448784 7.04074979 -2.5625 5.5625 C-2.29566406 4.73878906 -2.02882813 3.91507813 -1.75390625 3.06640625 C-1 1 -1 1 0 0 Z " fill="#F2F2ED" transform="translate(332,49)"/>
<path d="M0 0 C0.66 0 1.32 0 2 0 C2.83848804 1.45537568 3.67063934 2.91440373 4.5 4.375 C5.19609375 5.59316406 5.19609375 5.59316406 5.90625 6.8359375 C7 9 7 9 7 11 C4.03 11 1.06 11 -2 11 C-1.34 7.37 -0.68 3.74 0 0 Z " fill="#EBECE7" transform="translate(212,36)"/>
<path d="M0 0 C-1.34842555 5.56225539 -5.56689879 8.73442841 -10 12 C-10.99 12.33 -11.98 12.66 -13 13 C-10.94477446 7.00559216 -6.96791217 0 0 0 Z " fill="#EAEBE6" transform="translate(425,234)"/>
<path d="M0 0 C1.95167729 2.92751593 2.36553384 4.0847289 2.75 7.4375 C2.84796875 8.19933594 2.9459375 8.96117187 3.046875 9.74609375 C2.99311664 12.33097489 2.30508837 13.79640849 1 16 C0 15 0 15 -0.09765625 11.62109375 C-0.09098369 10.22652923 -0.07902532 8.83198257 -0.0625 7.4375 C-0.05798828 6.72658203 -0.05347656 6.01566406 -0.04882812 5.28320312 C-0.03700864 3.52209987 -0.01907263 1.76103964 0 0 Z " fill="#697570" transform="translate(39,298)"/>
</svg>
